$MeshFormat
4.1 0 8
$EndMeshFormat
$PhysicalNames
7
0 7 "point_singularity"
1 3 "neumannupper"
1 4 "neumannlower"
1 5 "contourupper"
1 6 "contourlower"
2 1 "upper"
2 2 "lower"
$EndPhysicalNames
$Entities
10 13 4 0
1 -1 0 0 0 
2 0 0 0 1 7 
3 1 0 0 0 
4 -1 1 0 0 
5 0 1 0 0 
6 1 1 0 0 
7 -1 -1 0 0 
8 0 -1 0 0 
9 1 -1 0 0 
10 1 0 0 0 
1 -1.0000001 -1e-07 -1e-07 9.999999994736442e-08 1e-07 1e-07 0 2 1 -2 
2 -1e-07 -9.999999994736442e-08 -1e-07 1e-07 1.0000001 1e-07 0 2 2 -5 
3 -1.0000001 0.9999999000000001 -1e-07 9.999999994736442e-08 1.0000001 1e-07 1 5 2 5 -4 
4 -1.0000001 -9.999999994736442e-08 -1e-07 -0.9999999000000001 1.0000001 1e-07 1 5 2 4 -1 
5 -9.999999994736442e-08 -1e-07 -1e-07 1.0000001 1e-07 1e-07 1 3 2 2 -3 
6 0.9999999000000001 -9.999999994736442e-08 -1e-07 1.0000001 1.0000001 1e-07 1 5 2 3 -6 
7 -9.999999994736442e-08 0.9999999000000001 -1e-07 1.0000001 1.0000001 1e-07 1 5 2 6 -5 
8 -1.0000001 -1.0000001 -1e-07 9.999999994736442e-08 -0.9999999000000001 1e-07 1 6 2 7 -8 
9 -1e-07 -1.0000001 -1e-07 1e-07 9.999999994736442e-08 1e-07 0 2 8 -2 
10 -1.0000001 -1.0000001 -1e-07 -0.9999999000000001 9.999999994736442e-08 1e-07 1 6 2 1 -7 
11 -9.999999994736442e-08 -1.0000001 -1e-07 1.0000001 -0.9999999000000001 1e-07 1 6 2 8 -9 
12 0.9999999000000001 -1.0000001 -1e-07 1.0000001 9.999999994736442e-08 1e-07 1 6 2 9 -10 
13 -9.999999994736442e-08 -1e-07 -1e-07 1.0000001 1e-07 1e-07 1 4 2 10 -2 
1 -1.0000001 -9.999999994736442e-08 -1e-07 9.999999994736442e-08 1.0000001 1e-07 1 1 4 1 2 3 4 
2 -9.999999994736442e-08 -9.999999994736442e-08 -1e-07 1.0000001 1.0000001 1e-07 1 1 4 5 6 7 -2 
3 -1.0000001 -1.0000001 -1e-07 9.999999994736442e-08 9.999999994736442e-08 1e-07 1 2 4 8 9 -1 10 
4 -9.999999994736442e-08 -1.0000001 -1e-07 1.0000001 9.999999994736442e-08 1e-07 1 2 4 11 12 13 -9 
$EndEntities
$Nodes
27 85 1 85
0 1 0 1
1
-1 0 0
0 2 0 1
2
0 0 0
0 3 0 1
3
1 0 0
0 4 0 1
4
-1 1 0
0 5 0 1
5
0 1 0
0 6 0 1
6
1 1 0
0 7 0 1
7
-1 -1 0
0 8 0 1
8
0 -1 0
0 9 0 1
9
1 -1 0
0 10 0 1
10
1 0 0
1 1 0 3
11
12
13
-0.75 0 0
-0.5 0 0
-0.25 0 0
1 2 0 3
14
15
16
0 0.25 0
0 0.5 0
0 0.75 0
1 3 0 3
17
18
19
-0.25 1 0
-0.5 1 0
-0.75 1 0
1 4 0 3
20
21
22
-1 0.75 0
-1 0.5 0
-1 0.25 0
1 5 0 3
23
24
25
0.25 0 0
0.5 0 0
0.75 0 0
1 6 0 3
26
27
28
1 0.25 0
1 0.5 0
1 0.75 0
1 7 0 3
29
30
31
0.75 1 0
0.5 1 0
0.25 1 0
1 8 0 3
32
33
34
-0.75 -1 0
-0.5 -1 0
-0.25 -1 0
1 9 0 3
35
36
37
0 -0.75 0
0 -0.5 0
0 -0.25 0
1 10 0 3
38
39
40
-1 -0.25 0
-1 -0.5 0
-1 -0.75 0
1 11 0 3
41
42
43
0.25 -1 0
0.5 -1 0
0.75 -1 0
1 12 0 3
44
45
46
1 -0.75 0
1 -0.5 0
1 -0.25 0
1 13 0 3
47
48
49
0.75 0 0
0.5 0 0
0.25 0 0
2 1 0 9
50
51
52
53
54
55
56
57
58
-0.75 0.25 0
-0.75 0.5 0
-0.75 0.75 0
-0.5 0.25 0
-0.5 0.5 0
-0.5 0.75 0
-0.25 0.25 0
-0.25 0.5 0
-0.25 0.75 0
2 2 0 9
59
60
61
62
63
64
65
66
67
0.25 0.25 0
0.25 0.5 0
0.25 0.75 0
0.5 0.25 0
0.5 0.5 0
0.5 0.75 0
0.75 0.25 0
0.75 0.5 0
0.75 0.75 0
2 3 0 9
68
69
70
71
72
73
74
75
76
-0.75 -0.75 0
-0.75 -0.5 0
-0.75 -0.25 0
-0.5 -0.75 0
-0.5 -0.5 0
-0.5 -0.25 0
-0.25 -0.75 0
-0.25 -0.5 0
-0.25 -0.25 0
2 4 0 9
77
78
79
80
81
82
83
84
85
0.25 -0.75 0
0.25 -0.5 0
0.25 -0.25 0
0.5 -0.75 0
0.5 -0.5 0
0.5 -0.25 0
0.75 -0.75 0
0.75 -0.5 0
0.75 -0.25 0
$EndNodes
$Elements
15 105 1 105
0 2 15 1
1 2 
1 3 1 4
2 5 17 
3 17 18 
4 18 19 
5 19 4 
1 4 1 4
6 4 20 
7 20 21 
8 21 22 
9 22 1 
1 5 1 4
10 2 23 
11 23 24 
12 24 25 
13 25 3 
1 6 1 4
14 3 26 
15 26 27 
16 27 28 
17 28 6 
1 7 1 4
18 6 29 
19 29 30 
20 30 31 
21 31 5 
1 8 1 4
22 7 32 
23 32 33 
24 33 34 
25 34 8 
1 10 1 4
26 1 38 
27 38 39 
28 39 40 
29 40 7 
1 11 1 4
30 8 41 
31 41 42 
32 42 43 
33 43 9 
1 12 1 4
34 9 44 
35 44 45 
36 45 46 
37 46 10 
1 13 1 4
38 10 47 
39 47 48 
40 48 49 
41 49 2 
2 1 3 16
42 1 11 50 22 
43 22 50 51 21 
44 21 51 52 20 
45 20 52 19 4 
46 11 12 53 50 
47 50 53 54 51 
48 51 54 55 52 
49 52 55 18 19 
50 12 13 56 53 
51 53 56 57 54 
52 54 57 58 55 
53 55 58 17 18 
54 13 2 14 56 
55 56 14 15 57 
56 57 15 16 58 
57 58 16 5 17 
2 2 3 16
58 2 23 59 14 
59 14 59 60 15 
60 15 60 61 16 
61 16 61 31 5 
62 23 24 62 59 
63 59 62 63 60 
64 60 63 64 61 
65 61 64 30 31 
66 24 25 65 62 
67 62 65 66 63 
68 63 66 67 64 
69 64 67 29 30 
70 25 3 26 65 
71 65 26 27 66 
72 66 27 28 67 
73 67 28 6 29 
2 3 3 16
74 7 32 68 40 
75 40 68 69 39 
76 39 69 70 38 
77 38 70 11 1 
78 32 33 71 68 
79 68 71 72 69 
80 69 72 73 70 
81 70 73 12 11 
82 33 34 74 71 
83 71 74 75 72 
84 72 75 76 73 
85 73 76 13 12 
86 34 8 35 74 
87 74 35 36 75 
88 75 36 37 76 
89 76 37 2 13 
2 4 3 16
90 8 41 77 35 
91 35 77 78 36 
92 36 78 79 37 
93 37 79 49 2 
94 41 42 80 77 
95 77 80 81 78 
96 78 81 82 79 
97 79 82 48 49 
98 42 43 83 80 
99 80 83 84 81 
100 81 84 85 82 
101 82 85 47 48 
102 43 9 44 83 
103 83 44 45 84 
104 84 45 46 85 
105 85 46 10 47 
$EndElements
