$MeshFormat
4.1 0 8
$EndMeshFormat
$PhysicalNames
2
1 2 "Boundaries"
2 1 "Domain"
$EndPhysicalNames
$Entities
10 13 4 0
1 0 0 0 0 
2 1 1 0 0 
3 -1 1 0 0 
4 -1 -1 0 0 
5 1 -1 0 0 
6 0 1 0 0 
7 0 -1 0 0 
8 1 0 0 0 
9 -1 1e-05 0 0 
10 -1 -1e-05 0 0 
1 -1 9.99999999995449e-06 0 -1 1 0 1 2 2 3 -9 
2 -1 -1 0 -1 -1.000000000001e-05 0 1 2 2 10 -4 
3 -1 -1 0 0 -1 0 1 2 2 4 -7 
4 0 -1 0 1 -1 0 1 2 2 7 -5 
5 1 -1 0 1 0 0 1 2 2 5 -8 
6 0 0 0 1 0 0 0 2 8 -1 
7 0 0 0 0 1 0 0 2 1 -6 
8 0 1 0 1 1 0 1 2 2 6 -2 
9 0 -1 0 0 0 0 0 2 1 -7 
10 -1 1 0 0 1 0 1 2 2 3 -6 
11 -1 0 0 0 1e-05 0 1 2 2 9 -1 
12 -1 -1e-05 0 0 0 0 1 2 2 10 -1 
13 1 0 0 1 1 0 1 2 2 2 -8 
1 -1 0 0 0 1 0 1 1 4 1 11 7 -10 
2 0 0 0 1 1 0 1 1 4 8 13 6 7 
3 0 -1 0 1 0 0 1 1 4 6 9 4 5 
4 -1 -1 0 0 0 0 1 1 4 12 9 -3 -2 
$EndEntities
$Nodes
27 85 1 85
0 1 0 1
1
0 0 0
0 2 0 1
2
1 1 0
0 3 0 1
3
-1 1 0
0 4 0 1
4
-1 -1 0
0 5 0 1
5
1 -1 0
0 6 0 1
6
0 1 0
0 7 0 1
7
0 -1 0
0 8 0 1
8
1 0 0
0 9 0 1
9
-1 1e-05 0
0 10 0 1
10
-1 -1e-05 0
1 1 0 3
11
12
13
-1 0.7500025000005419 0
-1 0.5000050000013223 0
-1 0.2500075000006503 0
1 2 0 3
14
15
16
-1 -0.250007499999398 0
-1 -0.500004999998681 0
-1 -0.7500024999993568 0
1 3 0 3
17
18
19
-0.7500000000003471 -1 0
-0.5000000000020595 -1 0
-0.2500000000010405 -1 0
1 4 0 3
20
21
22
0.2499999999994109 -1 0
0.4999999999986921 -1 0
0.7499999999993406 -1 0
1 5 0 3
23
24
25
1 -0.7500000000003471 0
1 -0.5000000000020595 0
1 -0.2500000000010405 0
1 6 0 3
26
27
28
0.7500000000003471 0 0
0.5000000000020595 0 0
0.2500000000010405 0 0
1 7 0 3
29
30
31
0 0.2499999999994109 0
0 0.4999999999986921 0
0 0.7499999999993406 0
1 8 0 3
32
33
34
0.2499999999994109 1 0
0.4999999999986921 1 0
0.7499999999993406 1 0
1 9 0 3
35
36
37
0 -0.2499999999994109 0
0 -0.4999999999986921 0
0 -0.7499999999993406 0
1 10 0 3
38
39
40
-0.7500000000003471 1 0
-0.5000000000020595 1 0
-0.2500000000010405 1 0
1 11 0 3
41
42
43
-0.7500000000003468 7.50000000000347e-06 0
-0.5000000000020606 5.000000000020606e-06 0
-0.2500000000010412 2.500000000010412e-06 0
1 12 0 3
44
45
46
-0.7500000000003468 -7.50000000000347e-06 0
-0.5000000000020606 -5.000000000020606e-06 0
-0.2500000000010412 -2.500000000010412e-06 0
1 13 0 3
47
48
49
1 0.7500000000003471 0
1 0.5000000000020595 0
1 0.2500000000010405 0
2 1 0 9
50
51
52
53
54
55
56
57
58
-0.7500000000003472 0.7500018750002415 0
-0.5000000000020598 0.7500012499999411 0
-0.2500000000010406 0.750000624999641 0
-0.7500000000003469 0.5000037500006645 0
-0.50000000000206 0.5000025000000072 0
-0.2500000000010408 0.5000012499993497 0
-0.7500000000003467 0.2500056250003404 0
-0.5000000000020602 0.2500037500000307 0
-0.2500000000010411 0.2500018749997208 0
2 2 0 9
59
60
61
62
63
64
65
66
67
0.2499999999998184 0.7499999999995922 0
0.2500000000002257 0.4999999999995339 0
0.2500000000006332 0.2499999999998184 0
0.4999999999995339 0.749999999999844 0
0.5000000000003757 0.5000000000003757 0
0.5000000000012177 0.2500000000002257 0
0.7499999999995921 0.7500000000000953 0
0.7499999999998439 0.5000000000012177 0
0.7500000000000954 0.2500000000006332 0
2 3 0 9
68
69
70
71
72
73
74
75
76
0.7500000000000954 -0.2500000000006332 0
0.7499999999998438 -0.5000000000012177 0
0.7499999999995921 -0.7500000000000953 0
0.5000000000012177 -0.2500000000002257 0
0.5000000000003757 -0.5000000000003757 0
0.4999999999995339 -0.7499999999998439 0
0.2500000000006332 -0.2499999999998184 0
0.2500000000002257 -0.4999999999995339 0
0.2499999999998184 -0.7499999999995922 0
2 4 0 9
77
78
79
80
81
82
83
84
85
-0.7500000000003469 -0.2500056249994012 0
-0.7500000000003471 -0.5000037499986837 0
-0.7500000000003471 -0.7500018749993528 0
-0.5000000000020602 -0.2500037499994045 0
-0.5000000000020601 -0.5000024999986865 0
-0.5000000000020598 -0.7500012499993487 0
-0.2500000000010411 -0.2500018749994076 0
-0.2500000000010408 -0.5000012499986894 0
-0.2500000000010406 -0.7500006249993447 0
$EndNodes
$Elements
14 104 1 104
1 1 1 4
1 3 11 
2 11 12 
3 12 13 
4 13 9 
1 2 1 4
5 10 14 
6 14 15 
7 15 16 
8 16 4 
1 3 1 4
9 4 17 
10 17 18 
11 18 19 
12 19 7 
1 4 1 4
13 7 20 
14 20 21 
15 21 22 
16 22 5 
1 5 1 4
17 5 23 
18 23 24 
19 24 25 
20 25 8 
1 8 1 4
21 6 32 
22 32 33 
23 33 34 
24 34 2 
1 10 1 4
25 3 38 
26 38 39 
27 39 40 
28 40 6 
1 11 1 4
29 9 41 
30 41 42 
31 42 43 
32 43 1 
1 12 1 4
33 10 44 
34 44 45 
35 45 46 
36 46 1 
1 13 1 4
37 2 47 
38 47 48 
39 48 49 
40 49 8 
2 1 3 16
41 3 11 50 38 
42 38 50 51 39 
43 39 51 52 40 
44 40 52 31 6 
45 11 12 53 50 
46 50 53 54 51 
47 51 54 55 52 
48 52 55 30 31 
49 12 13 56 53 
50 53 56 57 54 
51 54 57 58 55 
52 55 58 29 30 
53 13 9 41 56 
54 56 41 42 57 
55 57 42 43 58 
56 58 43 1 29 
2 2 3 16
57 6 32 59 31 
58 31 59 60 30 
59 30 60 61 29 
60 29 61 28 1 
61 32 33 62 59 
62 59 62 63 60 
63 60 63 64 61 
64 61 64 27 28 
65 33 34 65 62 
66 62 65 66 63 
67 63 66 67 64 
68 64 67 26 27 
69 34 2 47 65 
70 65 47 48 66 
71 66 48 49 67 
72 67 49 8 26 
2 3 3 16
73 8 26 68 25 
74 25 68 69 24 
75 24 69 70 23 
76 23 70 22 5 
77 26 27 71 68 
78 68 71 72 69 
79 69 72 73 70 
80 70 73 21 22 
81 27 28 74 71 
82 71 74 75 72 
83 72 75 76 73 
84 73 76 20 21 
85 28 1 35 74 
86 74 35 36 75 
87 75 36 37 76 
88 76 37 7 20 
2 4 3 16
89 10 44 77 14 
90 14 77 78 15 
91 15 78 79 16 
92 16 79 17 4 
93 44 45 80 77 
94 77 80 81 78 
95 78 81 82 79 
96 79 82 18 17 
97 45 46 83 80 
98 80 83 84 81 
99 81 84 85 82 
100 82 85 19 18 
101 46 1 35 83 
102 83 35 36 84 
103 84 36 37 85 
104 85 37 7 19 
$EndElements
