$MeshFormat
4.1 0 8
$EndMeshFormat
$PhysicalNames
6
0 4 "FixPoint"
0 6 "Trailingedge"
1 2 "Profile"
1 3 "OuterBoundary"
1 5 "Cut"
2 1 "Domain"
$EndPhysicalNames
$Entities
29 41 13 0
1 0 0 0 1 4 
2 0.4000000000000004 0.322772 0 0 
3 1.600000000000001 0.544174 0 0 
4 3.6 0.592421 0 0 
5 6.400000000000001 0.420066 0 0 
6 10 0 0 1 6 
7 6.400000000000001 -0.420066 0 0 
8 3.6 -0.592421 0 0 
9 1.600000000000001 -0.544174 0 0 
10 0.4000000000000004 -0.322772 0 0 
11 -2 0 0 0 
12 -1.414213562373095 -1.414213562373095 0 0 
13 1.600000000000001 -2 0 0 
14 3.6 -2 0 0 
15 6.400000000000001 -2 0 0 
16 10 -2 0 0 
17 14 -2 0 0 
18 14 0 0 0 
19 14 2 0 0 
20 10 2 0 0 
21 6.400000000000001 2 0 0 
22 3.6 2 0 0 
23 1.600000000000001 2 0 0 
24 -1.414213562373095 1.414213562373095 0 0 
25 6.400000000000001 0 0 0 
26 18.4 0 0 0 
27 6.400000000000001 12 0 0 
28 -5.599999999999999 0 0 0 
29 6.400000000000001 -12 0 0 
1 -1.000000000028756e-07 -1.000000000028756e-07 -1e-07 0.4000001000000004 0.3227721 1e-07 1 2 2 1 -2 
2 0.3999999000000003 0.3227719 -1e-07 1.600000100000001 0.5441741 1e-07 1 2 2 2 -3 
3 1.5999999 0.5441739000000001 -1e-07 3.600000099999999 0.5924210999999999 1e-07 1 2 2 3 -4 
4 3.5999999 0.4200659 -1e-07 6.400000100000002 0.5924210999999999 1e-07 1 2 2 4 -5 
5 6.399999900000001 -1.000000000028756e-07 -1e-07 10.0000001 0.4200661 1e-07 1 2 2 5 -6 
6 6.399999900000001 -0.4200661 -1e-07 10.0000001 1.000000000028756e-07 1e-07 1 2 2 6 -7 
7 3.5999999 -0.5924210999999999 -1e-07 6.400000100000002 -0.4200659 1e-07 1 2 2 7 -8 
8 1.5999999 -0.5924210999999999 -1e-07 3.600000099999999 -0.5441739000000001 1e-07 1 2 2 8 -9 
9 0.3999999000000003 -0.5441741 -1e-07 1.600000100000001 -0.3227719 1e-07 1 2 2 9 -10 
10 -1.000000000028756e-07 -0.3227721 -1e-07 0.4000001000000004 1.000000000028756e-07 1e-07 1 2 2 10 -1 
11 -2.0000001 -1.414213662373095 -1e-07 -1.414213462373095 9.999999994736442e-08 1e-07 0 2 11 -12 
12 -1.414213662373095 -2.0000001 -1e-07 1.6000001 -1.414213462373095 1e-07 0 2 12 -13 
13 1.5999999 -2.0000001 -1e-07 3.600000099999999 -1.9999999 1e-07 0 2 13 -14 
14 3.5999999 -2.0000001 -1e-07 6.400000100000002 -1.9999999 1e-07 0 2 14 -15 
15 6.399999900000001 -2.0000001 -1e-07 10.0000001 -1.9999999 1e-07 0 2 15 -16 
16 9.999999900000001 -2.0000001 -1e-07 14.0000001 -1.9999999 1e-07 0 2 16 -17 
17 13.9999999 -2.0000001 -1e-07 14.0000001 9.999999994736442e-08 1e-07 0 2 17 -18 
18 13.9999999 -9.999999994736442e-08 -1e-07 14.0000001 2.0000001 1e-07 0 2 18 -19 
19 9.999999900000001 1.9999999 -1e-07 14.0000001 2.0000001 1e-07 0 2 19 -20 
20 6.399999900000001 1.9999999 -1e-07 10.0000001 2.0000001 1e-07 0 2 20 -21 
21 3.5999999 1.9999999 -1e-07 6.400000100000002 2.0000001 1e-07 0 2 21 -22 
22 1.5999999 1.9999999 -1e-07 3.600000099999999 2.0000001 1e-07 0 2 22 -23 
23 -1.414213662373095 1.414213462373095 -1e-07 1.600000100000001 2.0000001 1e-07 0 2 23 -24 
24 -2.0000001 -9.999999994736442e-08 -1e-07 -1.414213462373095 1.414213662373095 1e-07 0 2 24 -11 
25 -2.0000001 -1e-07 -1e-07 9.999999994736442e-08 1e-07 1e-07 0 2 1 -11 
26 -1.414213662373095 -1.414213662373095 -1e-07 0.4000001000000003 -0.3227719 1e-07 0 2 10 -12 
27 1.5999999 -2.0000001 -1e-07 1.600000100000001 -0.5441739000000001 1e-07 0 2 9 -13 
28 3.5999999 -2.0000001 -1e-07 3.600000099999999 -0.5924209 1e-07 0 2 8 -14 
29 6.399999900000001 -2.0000001 -1e-07 6.400000100000002 -0.4200659 1e-07 0 2 7 -15 
30 9.999999900000001 -2.0000001 -1e-07 10.0000001 9.999999994736442e-08 1e-07 0 2 6 -16 
31 9.999999900000001 -1e-07 -1e-07 14.0000001 1e-07 1e-07 0 2 6 -18 
32 9.999999900000001 -9.999999994736442e-08 -1e-07 10.0000001 2.0000001 1e-07 0 2 6 -20 
33 6.399999900000001 0.4200659 -1e-07 6.400000100000002 2.0000001 1e-07 1 5 2 5 -21 
34 3.5999999 0.5924209 -1e-07 3.600000099999999 2.0000001 1e-07 0 2 4 -22 
35 1.5999999 0.5441739000000001 -1e-07 1.600000100000001 2.0000001 1e-07 0 2 3 -23 
36 -1.414213662373095 0.3227719 -1e-07 0.4000001000000003 1.414213662373095 1e-07 0 2 2 -24 
37 6.399999900000003 -1.000000011686097e-07 -1e-07 18.4000001 12.0000001 1e-07 1 3 2 26 -27 
38 -5.600000099999999 -9.999999672771764e-08 -1e-07 6.400000100000003 12.0000001 1e-07 1 3 2 27 -28 
39 -5.600000099999999 -12.0000001 -1e-07 6.4000001 1.000000002804313e-07 1e-07 1 3 2 28 -29 
40 6.3999999 -12.0000001 -1e-07 18.4000001 9.999999850407448e-08 1e-07 1 3 2 29 -26 
41 6.399999900000001 1.9999999 -1e-07 6.400000100000002 12.0000001 1e-07 1 5 2 21 -27 
1 -2.0000001 -1.414213662373095 -1e-07 0.4000001000000003 9.999999994736442e-08 1e-07 1 1 4 11 -26 10 25 
2 -1.414213662373095 -2.0000001 -1e-07 1.600000100000001 -0.3227719 1e-07 1 1 4 12 -27 9 26 
3 1.5999999 -2.0000001 -1e-07 3.600000099999999 -0.5441739000000001 1e-07 1 1 4 13 -28 8 27 
4 3.5999999 -2.0000001 -1e-07 6.400000100000002 -0.4200659 1e-07 1 1 4 14 -29 7 28 
5 6.399999900000001 -2.0000001 -1e-07 10.0000001 9.999999994736442e-08 1e-07 1 1 4 15 -30 6 29 
6 9.999999900000001 -2.0000001 -1e-07 14.0000001 9.999999994736442e-08 1e-07 1 1 4 16 17 -31 30 
7 9.999999900000001 -9.999999994736442e-08 -1e-07 14.0000001 2.0000001 1e-07 1 1 4 31 18 19 -32 
8 6.399999900000001 -9.999999994736442e-08 -1e-07 10.0000001 2.0000001 1e-07 1 1 4 32 20 -33 5 
9 3.5999999 0.4200659 -1e-07 6.400000100000002 2.0000001 1e-07 1 1 4 33 21 -34 4 
10 1.5999999 0.5441739000000001 -1e-07 3.600000099999999 2.0000001 1e-07 1 1 4 34 22 -35 3 
11 -1.414213662373095 0.3227719 -1e-07 1.600000100000001 2.0000001 1e-07 1 1 4 35 23 -36 2 
12 -2.0000001 -9.999999994736442e-08 -1e-07 0.4000001000000003 1.414213662373095 1e-07 1 1 4 36 24 -25 1 
13 -5.600000099999999 -12.0000001 -1e-07 18.4000001 12.0000001 1e-07 1 1 18 37 38 39 40 -24 -23 -22 -21 -20 -19 -18 -17 -16 -15 -14 -13 -12 -11 
$EndEntities
$Nodes
57 89 1 89
0 1 0 1
1
0 0 0
0 2 0 1
2
0.4000000000000004 0.322772 0
0 3 0 1
3
1.600000000000001 0.544174 0
0 4 0 1
4
3.6 0.592421 0
0 5 0 1
5
6.400000000000001 0.420066 0
0 6 0 1
6
10 0 0
0 7 0 1
7
6.400000000000001 -0.420066 0
0 8 0 1
8
3.6 -0.592421 0
0 9 0 1
9
1.600000000000001 -0.544174 0
0 10 0 1
10
0.4000000000000004 -0.322772 0
0 11 0 1
11
-2 0 0
0 12 0 1
12
-1.414213562373095 -1.414213562373095 0
0 13 0 1
13
1.600000000000001 -2 0
0 14 0 1
14
3.6 -2 0
0 15 0 1
15
6.400000000000001 -2 0
0 16 0 1
16
10 -2 0
0 17 0 1
17
14 -2 0
0 18 0 1
18
14 0 0
0 19 0 1
19
14 2 0
0 20 0 1
20
10 2 0
0 21 0 1
21
6.400000000000001 2 0
0 22 0 1
22
3.6 2 0
0 23 0 1
23
1.600000000000001 2 0
0 24 0 1
24
-1.414213562373095 1.414213562373095 0
0 26 0 1
25
18.4 0 0
0 27 0 1
26
6.400000000000001 12 0
0 28 0 1
27
-5.599999999999999 0 0
0 29 0 1
28
6.400000000000001 -12 0
1 1 0 0
1 2 0 0
1 3 0 0
1 4 0 0
1 5 0 0
1 6 0 0
1 7 0 0
1 8 0 0
1 9 0 0
1 10 0 0
1 33 0 0
1 37 0 4
29
30
31
32
17.81267819554185 3.708203932499363 0
16.10820393249938 7.053423027509663 0
13.4534230275097 9.708203932499355 0
10.10820393249938 11.41267819554184 0
1 38 0 4
33
34
35
36
2.691796067500644 11.41267819554185 0
-0.6534230275096657 9.708203932499377 0
-3.308203932499361 7.053423027509688 0
-5.012678195541837 3.708203932499382 0
1 39 0 4
37
38
39
40
-5.012678195541839 -3.708203932499375 0
-3.308203932499361 -7.053423027509686 0
-0.6534230275096649 -9.708203932499377 0
2.691796067500639 -11.41267819554185 0
1 40 0 4
41
42
43
44
10.10820393249937 -11.41267819554184 0
13.45342302750969 -9.708203932499361 0
16.10820393249938 -7.053423027509666 0
17.81267819554185 -3.70820393249936 0
1 41 0 3
45
46
47
6.400000000000001 4.5 0
6.400000000000001 7 0
6.400000000000001 9.5 0
2 1 0 0
2 2 0 0
2 3 0 0
2 4 0 0
2 5 0 0
2 6 0 0
2 7 0 0
2 8 0 0
2 9 0 0
2 10 0 0
2 11 0 0
2 12 0 0
2 13 0 42
48
49
50
51
52
53
54
55
56
57
58
59
60
61
62
63
64
65
66
67
68
69
70
71
72
73
74
75
76
77
78
79
80
81
82
83
84
85
86
87
88
89
2.654972323184864 3.824183478942354 0
4.912979731625983 -4.103289262636616 0
0.4243096284770456 3.976417485642906 0
-0.09411267273643098 -3.397271231748773 0
11.58381305699775 -4.407184475324248 0
11.2889091939633 4.617468363189581 0
7.879823195418789 -8.479344486788817 0
1.604420241765926 5.745614259478795 0
2.319340932514718 -7.989471838253826 0
-3.369654502999458 -1.279595834864302 0
-2.391035260081816 -2.971910450546928 0
7.80730486016034 -4.529524519237767 0
2.394961567417654 -3.794983709956433 0
10.79890771932005 7.780335348389893 0
4.302411757611676 5.504429459033132 0
3.998218749988221 8.074433685718329 0
0.9935489719855113 -5.572727994390891 0
15.73205080756888 -0.9999999999999999 0
8.548714365577318 5.899633951929912 0
14.74820168812446 4.654328015635945 0
14.74820168812446 -4.654328015635949 0
15.73205080756888 1 0
9.854065912727767 -6.440392399589405 0
4.579938844570289 3.720468494081277 0
-0.3637905486766044 6.424310044653312 0
-1.821469211058734 3.710731937766399 0
-1.520772765824605 -5.170069008065387 0
4.908539046898525 -9.416713851723138 0
5.613170172741652 -6.758876437488786 0
1.512348155626663 8.311458603877618 0
12.77857611362818 -6.856981547942929 0
13.21206240874106 6.877732349231146 0
-3.415912482869542 2.243609805843781 0
8.45116520347935 8.31852949917233 0
8.527524711908125 3.803420463023898 0
15.70443576693549 2.952169346569892 0
15.70443576693549 -2.952169346569891 0
3.329850153236854 -5.666788032718221 0
-3.159956109648419 0.4756455066705156 0
10.84594147280056 -8.664902205222894 0
-0.4339019642666795 -7.098779160143833 0
-0.3028432862386961 2.7753407464456 0
$EndNodes
$Elements
31 173 1 173
0 1 15 1
1 1 
0 6 15 1
2 6 
1 1 1 1
3 1 2 
1 2 1 1
4 2 3 
1 3 1 1
5 3 4 
1 4 1 1
6 4 5 
1 5 1 1
7 5 6 
1 6 1 1
8 6 7 
1 7 1 1
9 7 8 
1 8 1 1
10 8 9 
1 9 1 1
11 9 10 
1 10 1 1
12 10 1 
1 33 1 1
13 5 21 
1 37 1 5
14 25 29 
15 29 30 
16 30 31 
17 31 32 
18 32 26 
1 38 1 5
19 26 33 
20 33 34 
21 34 35 
22 35 36 
23 36 27 
1 39 1 5
24 27 37 
25 37 38 
26 38 39 
27 39 40 
28 40 28 
1 40 1 5
29 28 41 
30 41 42 
31 42 43 
32 43 44 
33 44 25 
1 41 1 4
34 21 45 
35 45 46 
36 46 47 
37 47 26 
2 1 3 1
38 11 12 10 1 
2 2 3 1
39 12 13 9 10 
2 3 3 1
40 13 14 8 9 
2 4 3 1
41 14 15 7 8 
2 5 3 1
42 15 16 6 7 
2 6 3 1
43 16 17 18 6 
2 7 3 1
44 6 18 19 20 
2 8 3 1
45 6 20 21 5 
2 9 3 1
46 5 21 22 4 
2 10 3 1
47 4 22 23 3 
2 11 3 1
48 3 23 24 2 
2 12 3 1
49 2 24 11 1 
2 13 2 124
50 24 86 11 
51 33 63 47 
52 19 53 20 
53 16 52 17 
54 47 81 32 
55 62 63 55 
56 66 82 53 
57 59 70 52 
58 16 59 52 
59 21 71 22 
60 20 82 21 
61 59 76 54 
62 51 60 13 
63 61 66 53 
64 54 70 59 
65 36 73 35 
66 63 77 55 
67 52 68 17 
68 19 67 53 
69 46 62 45 
70 37 57 27 
71 53 82 20 
72 40 56 39 
73 41 54 28 
74 14 49 15 
75 32 61 31 
76 72 77 34 
77 51 64 60 
78 37 74 58 
79 15 59 16 
80 35 73 72 
81 55 77 72 
82 32 81 61 
83 27 86 80 
84 35 72 34 
85 29 69 25 
86 25 65 44 
87 46 63 62 
88 24 89 73 
89 29 83 69 
90 65 84 44 
91 80 86 24 
92 38 74 37 
93 73 80 24 
94 50 89 23 
95 33 77 63 
96 27 80 36 
97 45 71 21 
98 47 63 46 
99 53 79 61 
100 22 48 23 
101 14 60 49 
102 48 62 55 
103 30 67 29 
104 44 68 43 
105 62 71 45 
106 45 66 46 
107 37 58 57 
108 48 50 23 
109 40 75 56 
110 49 76 59 
111 54 75 28 
112 48 71 62 
113 56 88 39 
114 12 58 51 
115 34 77 33 
116 41 87 54 
117 13 60 14 
118 61 79 31 
119 57 86 27 
120 36 80 73 
121 70 78 52 
122 22 71 48 
123 28 75 40 
124 39 88 38 
125 75 76 56 
126 48 55 50 
127 68 84 17 
128 19 83 67 
129 31 79 30 
130 43 78 42 
131 49 59 15 
132 17 65 18 
133 18 69 19 
134 64 85 60 
135 72 73 50 
136 55 72 50 
137 70 87 78 
138 76 85 56 
139 42 87 41 
140 46 81 47 
141 73 89 50 
142 64 88 56 
143 66 81 46 
144 67 83 29 
145 44 84 68 
146 25 69 65 
147 54 87 70 
148 51 74 64 
149 21 82 45 
150 52 78 68 
151 67 79 53 
152 45 82 66 
153 11 57 12 
154 54 76 75 
155 30 79 67 
156 68 78 43 
157 58 74 51 
158 56 85 64 
159 60 85 49 
160 49 85 76 
161 11 86 57 
162 65 69 18 
163 61 81 66 
164 57 58 12 
165 78 87 42 
166 17 84 65 
167 69 83 19 
168 74 88 64 
169 38 88 74 
170 12 51 13 
171 23 89 24 
172 32 26 47 
173 47 26 33 
$EndElements
