$MeshFormat
4.1 0 8
$EndMeshFormat
$PhysicalNames
4
0 4 "Trailingedge"
1 2 "Dirichlet"
1 3 "Neumann"
2 1 "Domain"
$EndPhysicalNames
$Entities
7 8 2 0
1 -1 -1 0 0 
2 0 -1 0 0 
3 0 0 0 1 4 
4 -1 0 0 0 
5 1 0 0 0 
6 1 1 0 0 
7 -1 1 0 0 
1 -1.0000001 -1.0000001 -1e-07 9.999999994736442e-08 -0.9999999000000001 1e-07 1 2 2 1 -2 
2 -1e-07 -1.0000001 -1e-07 1e-07 9.999999994736442e-08 1e-07 1 2 2 2 -3 
3 -1.0000001 -1e-07 -1e-07 9.999999994736442e-08 1e-07 1e-07 0 2 3 -4 
4 -1.0000001 -1.0000001 -1e-07 -0.9999999000000001 9.999999994736442e-08 1e-07 1 2 2 4 -1 
5 -9.999999994736442e-08 -1e-07 -1e-07 1.0000001 1e-07 1e-07 1 2 2 3 -5 
6 0.9999999000000001 -9.999999994736442e-08 -1e-07 1.0000001 1.0000001 1e-07 1 2 2 5 -6 
7 -1.0000001 0.9999999000000001 -1e-07 1.0000001 1.0000001 1e-07 1 2 2 6 -7 
8 -1.0000001 -9.999999994736442e-08 -1e-07 -0.9999999000000001 1.0000001 1e-07 1 2 2 7 -4 
1 -1.0000001 -1.0000001 -1e-07 9.999999994736442e-08 9.999999994736442e-08 1e-07 1 1 4 1 2 3 4 
2 -1.0000001 -9.999999994736442e-08 -1e-07 1.0000001 1.0000001 1e-07 1 1 5 8 -3 5 6 7 
$EndEntities
$Nodes
17 65 1 65
0 1 0 1
1
-1 -1 0
0 2 0 1
2
0 -1 0
0 3 0 1
3
0 0 0
0 4 0 1
4
-1 0 0
0 5 0 1
5
1 0 0
0 6 0 1
6
1 1 0
0 7 0 1
7
-1 1 0
1 1 0 3
8
9
10
-0.75 -1 0
-0.5 -1 0
-0.25 -1 0
1 2 0 3
11
12
13
0 -0.75 0
0 -0.5 0
0 -0.25 0
1 3 0 3
14
15
16
-0.25 0 0
-0.5 0 0
-0.75 0 0
1 4 0 3
17
18
19
-1 -0.25 0
-1 -0.5 0
-1 -0.75 0
1 5 0 3
20
21
22
0.25 0 0
0.5 0 0
0.75 0 0
1 6 0 3
23
24
25
1 0.25 0
1 0.5 0
1 0.75 0
1 7 0 7
26
27
28
29
30
31
32
0.75 1 0
0.5 1 0
0.25 1 0
0 1 0
-0.25 1 0
-0.5 1 0
-0.75 1 0
1 8 0 3
33
34
35
-1 0.75 0
-1 0.5 0
-1 0.25 0
2 1 0 9
36
37
38
39
40
41
42
43
44
-0.75 -0.75 0
-0.75 -0.5 0
-0.75 -0.25 0
-0.5 -0.75 0
-0.5 -0.5 0
-0.5 -0.25 0
-0.25 -0.75 0
-0.25 -0.5 0
-0.25 -0.25 0
2 2 0 21
45
46
47
48
49
50
51
52
53
54
55
56
57
58
59
60
61
62
63
64
65
-0.75 0.25 0
-0.75 0.5 0
-0.75 0.75 0
-0.5 0.25 0
-0.5 0.5 0
-0.5 0.75 0
-0.25 0.25 0
-0.25 0.5 0
-0.25 0.75 0
0 0.25 0
0 0.5 0
0 0.75 0
0.25 0.25 0
0.25 0.5 0
0.25 0.75 0
0.5 0.25 0
0.5 0.5 0
0.5 0.75 0
0.75 0.25 0
0.75 0.5 0
0.75 0.75 0
$EndNodes
$Elements
10 81 1 81
0 3 15 1
1 3 
1 1 1 4
2 1 8 
3 8 9 
4 9 10 
5 10 2 
1 2 1 4
6 2 11 
7 11 12 
8 12 13 
9 13 3 
1 4 1 4
10 4 17 
11 17 18 
12 18 19 
13 19 1 
1 5 1 4
14 3 20 
15 20 21 
16 21 22 
17 22 5 
1 6 1 4
18 5 23 
19 23 24 
20 24 25 
21 25 6 
1 7 1 8
22 6 26 
23 26 27 
24 27 28 
25 28 29 
26 29 30 
27 30 31 
28 31 32 
29 32 7 
1 8 1 4
30 7 33 
31 33 34 
32 34 35 
33 35 4 
2 1 3 16
34 1 8 36 19 
35 19 36 37 18 
36 18 37 38 17 
37 17 38 16 4 
38 8 9 39 36 
39 36 39 40 37 
40 37 40 41 38 
41 38 41 15 16 
42 9 10 42 39 
43 39 42 43 40 
44 40 43 44 41 
45 41 44 14 15 
46 10 2 11 42 
47 42 11 12 43 
48 43 12 13 44 
49 44 13 3 14 
2 2 3 32
50 4 16 45 35 
51 35 45 46 34 
52 34 46 47 33 
53 33 47 32 7 
54 16 15 48 45 
55 45 48 49 46 
56 46 49 50 47 
57 47 50 31 32 
58 15 14 51 48 
59 48 51 52 49 
60 49 52 53 50 
61 50 53 30 31 
62 14 3 54 51 
63 51 54 55 52 
64 52 55 56 53 
65 53 56 29 30 
66 3 20 57 54 
67 54 57 58 55 
68 55 58 59 56 
69 56 59 28 29 
70 20 21 60 57 
71 57 60 61 58 
72 58 61 62 59 
73 59 62 27 28 
74 21 22 63 60 
75 60 63 64 61 
76 61 64 65 62 
77 62 65 26 27 
78 22 5 23 63 
79 63 23 24 64 
80 64 24 25 65 
81 65 25 6 26 
$EndElements
